<?xml version="1.0"?>
<svg xmlns="http://www.w3.org/2000/svg" height="512px" viewBox="0 0 429.92093 429.92093" width="512px" class=""><g><path d="m366.960938 62.960938c-83.949219-83.949219-220.054688-83.949219-304 0-83.949219 83.945312-83.949219 220.050781 0 304 83.945312 83.945312 220.050781 83.945312 304 0 83.945312-83.949219 83.945312-220.054688 0-304zm-22 162h-200.5l75.5 75.5c1.871093 1.867187 2.925781 4.40625 2.925781 7.050781s-1.054688 5.179687-2.925781 7.046875c-1.875 1.890625-4.4375 2.9375-7.101563 2.902344-2.652344-.011719-5.195313-1.050782-7.097656-2.902344l-92.5-92.5c-1.882813-1.878906-2.929688-4.4375-2.902344-7.097656.019531-2.652344 1.058594-5.195313 2.902344-7.101563l92.5-92.5c3.890625-3.890625 10.207031-3.890625 14.097656 0 3.894531 3.894531 3.894531 10.207031 0 14.101563l-75.398437 75.5h200.5c5.523437 0 10 4.476562 10 10 0 5.523437-4.476563 10-10 10zm0 0" data-original="#000000" class="active-path" data-old_color="#000000" fill="#5B626A"/></g> </svg>
