<svg xmlns="http://www.w3.org/2000/svg" xmlns:xlink="http://www.w3.org/1999/xlink" ><rect id="svgEditorBackground" x="0" y="0" width="16" height="16" style="fill:none;stroke:none;"/><defs><linearGradient id="a" x1="50%" x2="50%" y1="0%" y2="100%"><stop offset="0%" stop-color="#18AFFF"/><stop offset="100%" stop-color="#0062DF"/></linearGradient><filter id="c" width="118.8%" height="118.8%" x="-9.4%" y="-9.4%" filterUnits="objectBoundingBox"><feGaussianBlur in="SourceAlpha" result="shadowBlurInner1" stdDeviation="1"/><feOffset dy="-1" in="shadowBlurInner1" result="shadowOffsetInner1"/><feComposite in="shadowOffsetInner1" in2="SourceAlpha" k2="-1" k3="1" operator="arithmetic" result="shadowInnerInner1"/><feColorMatrix in="shadowInnerInner1" values="0 0 0 0 0 0 0 0 0 0.299356041 0 0 0 0 0.681187726 0 0 0 0.3495684 0"/></filter><path id="b" d="M8 0a8 8 0 00-8 8 8 8 0 1016 0 8 8 0 00-8-8z"/></defs><g fill="none"><path d="M12.387352112676057,7.788704225352115c0.17600000000000193,0.12300000000000466,0.33800000000000097,0.24500000000000277,0.33800000000000097,0.6740000000000137c0,0.4299999999999997,-0.2289999999999992,0.604000000000001,-0.47400000000000375,0.7250000000000014a0.7300000000000006,0.7300000000000006,0,0,1,0.0890000000000093,0.5460000000000012c-0.07700000000000173,0.3439999999999994,-0.39199999999999946,0.6110000000000007,-0.6720000000000059,0.6900000000000066c0.12100000000000755,0.1940000000000044,0.15899999999999714,0.384999999999998,0.014999999999998792,0.6199999999999992c-0.18499999999999517,0.2950000000000017,-0.34599999999999653,0.4070000000000089,-1.0579999999999927,0.4070000000000089h-2.900000000000003c-0.9880000000000022,0,-1.5000000000000009,-0.5460000000000065,-1.5000000000000009,-1v-2.3350000000000115c0,-1.229999999999995,1.4670000000000023,-2.2750000000000012,1.4670000000000023,-3.1300000000000026l-0.10599999999999898,-1.0650000000000013c-0.004999999999999005,-0.06500000000000128,0.008000000000005336,-0.2240000000000073,0.05799999999999894,-0.27000000000001023c0.07999999999999652,-0.07899999999999618,0.3010000000000037,-0.20000000000000018,0.6350000000000016,-0.20000000000000018c0.21799999999999287,0,0.3630000000000031,0.04099999999999948,0.5339999999999954,0.12299999999999844c0.5809999999999977,0.2770000000000028,0.7320000000000064,0.9780000000000015,0.7320000000000064,1.5420000000000016c0,0.27100000000000435,-0.4140000000000086,1.0830000000000037,-0.47000000000000597,1.3640000000000043c0,0,0.8670000000000044,-0.19200000000000106,1.8789999999999978,-0.1990000000000025c1.0610000000000106,-0.005999999999999339,1.7490000000000023,0.19000000000000394,1.7490000000000023,0.8420000000000112c0,0.261000000000001,-0.2189999999999941,0.5230000000000006,-0.3160000000000025,0.6660000000000084ZM3.825352112676053,7.450704225352119h0.8000000000000052a0.6000000000000006,0.6000000000000006,0,0,1,0.6000000000000014,0.600000000000005v3.8000000000000007a0.6000000000000006,0.6000000000000006,0,0,1,-0.6000000000000014,0.5999999999999979h-0.7999999999999989a0.6000000000000006,0.6000000000000006,0,0,1,-0.6000000000000023,-0.5999999999999979v-3.8000000000000025a0.6000000000000006,0.6000000000000006,0,0,1,0.6000000000000023,-0.600000000000005Z" id="e1_path" style="fill:rgb(64,128,255);"/><text dy="-0.5em" style="fill:black;font-family:Arial;font-size:20px;" id="e3_text"><textPath id="e2_textPath" xlink:href="#e1_path">T</textPath></text></g></svg>