<?xml version="1.0" standalone="no"?>
<!DOCTYPE svg PUBLIC "-//W3C//DTD SVG 20010904//EN"
 "http://www.w3.org/TR/2001/REC-SVG-20010904/DTD/svg10.dtd">
<svg version="1.0" xmlns="http://www.w3.org/2000/svg"
 width="16.000000pt" height="16.000000pt" viewBox="0 0 16.000000 16.000000"
 preserveAspectRatio="xMidYMid meet">

<g transform="translate(0.000000,16.000000) scale(0.100000,-0.100000)"
fill="#000000" stroke="none">
<path d="M12 143 c-1 -10 -4 -35 -8 -55 -5 -31 -2 -41 19 -62 21 -21 34 -25
81 -25 l56 1 0 54 c0 74 -28 104 -97 104 -39 0 -49 -4 -51 -17z m115 -15 c18
-16 23 -32 23 -68 l0 -46 -47 -2 c-36 -1 -52 3 -70 20 -26 24 -28 41 -12 87
10 27 16 31 47 31 23 0 44 -8 59 -22z"/>
<path d="M30 77 c0 -18 32 -47 52 -47 17 0 48 31 48 48 0 8 -18 12 -50 12 -35
0 -50 -4 -50 -13z m88 -9 c-5 -15 -71 -15 -76 0 -2 8 10 12 38 12 28 0 40 -4
38 -12z"/>
</g>
</svg>
