<svg xmlns="http://www.w3.org/2000/svg" xmlns:svg="http://www.w3.org/2000/svg" width="25" height="25">
  <path fill="#1877f2" id="svg_1" d="m21.944444,8.055556l-13.25,0a0.75,0.75 0 0 0 -0.75,0.75l0,7c0,0.414 0.336,0.75 0.75,0.75l6.75,0l0,5.5l-12.5,0l0,-19l19,0l0,5zm0,14l-5,0l0,-6.25a0.75,0.75 0 0 0 -0.75,-0.75l-6.75,0l0,-5.5l12.5,0l0,12.5zm1.5,0.25l0,-19.5c0,-0.689 -0.561,-1.25 -1.25,-1.25l-19.5,0c-0.689,0 -1.25,0.561 -1.25,1.25l0,19.5c0,0.689 0.561,1.25 1.25,1.25l19.5,0c0.689,0 1.25,-0.561 1.25,-1.25z"/>
  <rect id="svg_6" height="0.111111" width="0" y="4.666667" x="37.833333" stroke-linecap="null" stroke-linejoin="null" stroke-dasharray="null" stroke-width="null" fill="#1877f2"/>
</svg>