<?xml version="1.0" standalone="no"?>
<!DOCTYPE svg PUBLIC "-//W3C//DTD SVG 20010904//EN"
 "http://www.w3.org/TR/2001/REC-SVG-20010904/DTD/svg10.dtd">
<svg version="1.0" xmlns="http://www.w3.org/2000/svg"
 width="16.000000pt" height="16.000000pt" viewBox="0 0 16.000000 16.000000"
 preserveAspectRatio="xMidYMid meet">

<g transform="translate(0.000000,16.000000) scale(0.100000,-0.100000)" stroke="none">
<path d="M16 134 c-21 -20 -21 -88 0 -108 23 -23 106 -21 127 2 21 23 22 86 1
106 -21 21 -107 21 -128 0z m122 -6 c16 -16 16 -80 0 -96 -16 -16 -100 -16
-116 0 -16 16 -16 80 0 96 16 16 100 16 116 0z"/>
<path d="M24 95 c-9 -23 4 -47 23 -43 9 2 18 10 20 18 4 13 3 13 -6 0 -8 -12
-12 -13 -23 -2 -11 11 -9 16 6 28 18 12 18 14 3 14 -10 0 -20 -7 -23 -15z"/>
<path d="M82 80 c0 -19 2 -27 5 -17 2 9 2 25 0 35 -3 9 -5 1 -5 -18z"/>
<path d="M100 85 c0 -18 4 -23 16 -18 13 5 13 7 2 14 -11 7 -10 11 2 19 13 8
12 10 -2 10 -12 0 -18 -8 -18 -25z"/>
</g>
</svg>
